# AST/ASF file generated using VICON BodyLanguage
# -----------------------------------------------
:version 1.10
:name VICON
:units
  mass 1.0
  length 0.45
  angle deg
:documentation
   .ast/.asf automatically generated from VICON data using
   VICON BodyBuilder and BodyLanguage model FoxedUp or BRILLIANT.MOD
:root
   order TX TY TZ RX RY RZ
   axis XYZ
   position 0 0 0  
   orientation 0 0 0 
:bonedata
  begin
     id 1 
     name lhipjoint
     direction 0.646657 -0.683706 0.338203 
     length 2.4948 
     axis 0 0 0  XYZ
  end
  begin
     id 2 
     name lfemur
     direction 0.34202 -0.939693 0  
     length 6.79491  
     axis 0 0 20  XYZ
    dof rx ry rz
    limits (-160.0 20.0)
           (-70.0 70.0)
           (-60.0 70.0)
  end
  begin
     id 3 
     name ltibia
     direction 0.34202 -0.939693 0   
     length 7.56807   
     axis 0 0 20   XYZ
    dof rx
    limits (-10.0 170.0)
  end
  begin
     id 4 
     name lfoot
     direction 0.0679796 -0.186772 0.980048   
     length 2.53018   
     axis -90 7.62852e-016 20   XYZ
    dof rx rz
    limits (-45.0 90.0)
           (-70.0 20.0)
  end
  begin
     id 5 
     name ltoes
     direction 1.53625e-011 -4.21881e-011 1   
     length 1.26912   
     axis -90 7.62852e-016 20   XYZ
    dof rx
    limits (-90.0 20.0)
  end
  begin
     id 6 
     name rhipjoint
     direction -0.618868 -0.704065 0.348274   
     length 2.42265  
     axis 0 0 0  XYZ 
  end
  begin
     id 7 
     name rfemur
     direction -0.34202 -0.939693 0   
     length 6.73814   
     axis 0 0 -20   XYZ
    dof rx ry rz
    limits (-160.0 20.0)
           (-70.0 70.0)
           (-70.0 60.0)
  end
  begin
     id 8 
     name rtibia
     direction -0.34202 -0.939693 0   
     length 7.66799   
     axis 0 0 -20   XYZ
    dof rx
    limits (-10.0 170.0)
 end
 begin
     id 9 
     name rfoot
     direction -0.0727352 -0.199838 0.977125   
     length 2.57224  
     axis -90 -7.62852e-016 -20   XYZ
    dof rx rz
    limits (-45.0 90.0)
           (-20.0 70.0)
  end
  begin
     id 10 
     name rtoes
     direction -1.53501e-011 -4.21858e-011 1   
     length 1.28858   
     axis -90 -7.62852e-016 -20   XYZ
    dof rx
    limits (-90.0 20.0)
  end
  begin
     id 11 
     name lowerback
     direction -0.0172471 0.995767 -0.0902851   
     length 2.20206   
     axis 0 0 0   XYZ
    dof rx ry rz
    limits (-20.0 45.0)
           (-30.0 30.0)
           (-30.0 30.0)
  end
  begin
     id 12 
     name upperback
     direction -0.000110737 0.999714 0.0239043   
     length 2.19523   
     axis 0 0 0   XYZ
    dof rx ry rz
    limits (-20.0 45.0)
           (-30.0 30.0)
           (-30.0 30.0)
  end
  begin
     id 13 
     name thorax
     direction 0.00704869 0.997783 0.0661741   
     length 2.21977   
     axis 0 0 0   XYZ
    dof rx ry rz
    limits (-20.0 45.0)
           (-30.0 30.0)
           (-30.0 30.0)
  end
  begin
     id 14 
     name lowerneck
     direction -0.00407501 0.995527 0.0943846   
     length 1.83142   
     axis 0 0 0   XYZ
    dof rx ry rz
    limits (-20.0 45.0)
           (-30.0 30.0)
           (-30.0 30.0)
  end
  begin
     id 15 
     name upperneck
     direction 0.0640586 0.986486 -0.150807   
     length 1.84616   
     axis 0 0 0   XYZ
    dof rx ry rz
    limits (-20.0 45.0)
           (-30.0 30.0)
           (-30.0 30.0)
  end
  begin
     id 16
     name head
     direction 0.0188017 0.99791 -0.0618239  
     length 1.85932  
     axis 0 0 0   XYZ
    dof rx ry rz
    limits (-20.0 45.0)
           (-30.0 30.0)
           (-30.0 30.0)
  end
  begin
     id 17 
     name lclavicle
     direction 0.976074 0.206905 0.066852  
     length 3.81043  
     axis 0 0 0   XYZ
    dof ry rz
    limits (-20.0 10.0)
           (0.0 20.0)
  end
  begin
     id 18 
     name lhumerus
     direction 1 -4.48971e-011 1.86916e-027   
     length 5.37587   
     axis 180 -30 -90   XYZ
    dof rx ry rz
    limits (-60.0 90.0)
           (-90.0 90.0)
           (-90.0 90.0)
  end
  begin
     id 19
     name lradius
     direction 1 -4.48968e-011 1.69187e-027   
     length 3.35977   
     axis 180 -30 -90   XYZ
    dof rx
    limits (-10.0 170.0)
  end
  begin
     id 20
     name lwrist
     direction 1 -4.48968e-011 5.8978e-027   
     length 1.67988   
     axis -3.27506e-015 90 90   XYZ
    dof ry
    limits (-180.0 0.0)
 end
  begin
     id 21 
     name lhand
     direction 1 -4.49028e-011 1.18071e-026   
     length 0.561859   
     axis -7.52654e-015 90 90   XYZ
    dof rx rz
    limits (-90.0 90.0)
           (-45.0 45.0)
  end
  begin
     id 22 
     name lfingers
     direction 1 -4.48927e-011 2.35758e-026   
     length 0.452985   
     axis -1.50534e-014 90 90   XYZ
    dof rx
    limits (0.0 90.0)
  end
  begin
     id 23
     name lthumb
     direction 0.707107 -6.34898e-011 0.707107   
     length 0.650399   
     axis -90 45 5.69224e-014   XYZ
    dof rx rz
    limits (-45.0 45.0)
           (-45.0 45.0)
  end
  begin
     id 24 
     name rclavicle
     direction -0.988403 0.151789 0.00439714   
     length 3.6942  
     axis 0 0 0   XYZ 
    dof ry rz
    limits (-10.0 20.0)
           (-20.0 0.0)
  end
  begin
     id 25 
     name rhumerus
     direction -1 -4.48978e-011 1.62495e-027  
     length 5.22819   
     axis 180 30 90   XYZ
    dof rx ry rz
    limits (-90.0 60.0)
           (-90.0 90.0)
           (-90.0 90.0)
  end
  begin
     id 26 
     name rradius
     direction -1 -4.48961e-011 3.47796e-027   
     length 3.40764   
     axis 180 30 90   XYZ
    dof rx
    limits (-10.0 170.0)
  end
  begin
     id 27 
     name rwrist
     direction -1 -4.48949e-011 5.89602e-027   
     length 1.70382   
     axis -3.27506e-015 -90 -90   XYZ
    dof ry
    limits (-180.0 0.0)
  end
  begin
     id 28
     name rhand
     direction -1 -4.48977e-011 1.17973e-026   
     length 0.583255   
     axis -7.52654e-015 -90 -90   XYZ
    dof rx rz
    limits (-90.0 90.0)
           (-45.0 45.0)
  end
  begin
     id 29
     name rfingers
     direction -1 -4.49099e-011 2.36408e-026   
     length 0.470235   
     axis -1.50534e-014 -90 -90   XYZ
    dof rx
    limits (0.0 90.0)
  end
  begin
     id 30
     name rthumb
     direction -0.707107 -6.35011e-011 0.707107   
     length 0.675167   
     axis -90 -45 -5.69224e-014   XYZ
    dof rx rz
    limits (-45.0 45.0)
           (-45.0 45.0)
  end
:hierarchy
  begin
    root lhipjoint rhipjoint lowerback
    lhipjoint lfemur
    lfemur ltibia
    ltibia lfoot
    lfoot ltoes
    rhipjoint rfemur
    rfemur rtibia
    rtibia rfoot
    rfoot rtoes
    lowerback upperback
    upperback thorax
    thorax lowerneck lclavicle rclavicle
    lowerneck upperneck
    upperneck head
    lclavicle lhumerus
    lhumerus lradius
    lradius lwrist
    lwrist lhand lthumb
    lhand lfingers
    rclavicle rhumerus
    rhumerus rradius
    rradius rwrist
    rwrist rhand rthumb
    rhand rfingers
  end

#!OML:ASF G:\JayActor3\Patient Classification 1\Patient 1\Session 2\male.ASF
:FULLY-SPECIFIED
:DEGREES
1662
root 7.32499 16.4254 -7.24006 486.882 86.2287 -953.387
lowerback 9.70947 -1.67364 -4.68287
upperback 2.90399 -2.56051 0.500139
thorax -2.18268 -1.23665 3.43789
lowerneck -11.9137 -0.607302 -1.27319
upperneck 14.7469 -1.2457 4.50317
head 6.48499 -0.261009 1.54239
rclavicle -3.32467e-014 9.93923e-016
rhumerus -26.772 15.9931 -71.1961
rradius 69.0624
rwrist 5.00137
rhand -39.5723 16.2051
rfingers 7.12502
rthumb -12.5555 -13.3977
lclavicle -3.32467e-014 9.93923e-016
lhumerus -16.6079 -23.2749 69.194
lradius 76.139
lwrist 14.4377
lhand -32.2756 13.9558
lfingers 7.12502
lthumb -5.51487 43.864
rfemur -27.5715 -2.82186 14.6776
rtibia 71.1271
rfoot -23.036 -9.64387
rtoes 3.49717
lfemur -15.7237 13.8337 -27.3556
ltibia 37.5692
lfoot -15.8697 -1.07027
ltoes 0.0429888
1663
root 7.4264 16.4217 -7.26161 484.474 86.175 -955.678
lowerback 9.7509 -1.71098 -4.7857
upperback 2.87632 -2.62441 0.460943
thorax -2.22527 -1.26685 3.46405
lowerneck -11.9698 -0.257285 -0.995998
upperneck 14.9403 -0.786159 4.26696
head 6.54034 -0.0398493 1.46404
rclavicle -2.42517e-014 3.77691e-015
rhumerus -26.7674 15.8918 -71.0446
rradius 69.0555
rwrist 4.97449
rhand -39.5668 16.2061
rfingers 7.12502
rthumb -12.5502 -13.397
lclavicle -2.42517e-014 3.77691e-015
lhumerus -15.9643 -23.5549 68.8952
lradius 76.5128
lwrist 14.5948
lhand -32.3898 13.8949
lfingers 7.12502
lthumb -5.62505 43.8002
rfemur -28.4493 -2.86431 14.5956
rtibia 70.7019
rfoot -22.8463 -9.33607
rtoes 3.27913
lfemur -15.0012 13.9592 -27.4401
ltibia 37.2843
lfoot -16.1285 -1.07317
ltoes 0.0908716
1664
root 7.52836 16.4188 -7.28249 482.292 86.1106 -957.752
lowerback 9.78068 -1.74588 -4.87576
upperback 2.84939 -2.68342 0.420878
thorax -2.26171 -1.29477 3.48116
lowerneck -12.0031 0.158785 -0.657559
upperneck 15.0798 -0.237335 3.97453
head 6.57473 0.221583 1.36537
rclavicle -1.27222e-014 6.36111e-015
rhumerus -26.7788 15.7777 -70.9057
rradius 69.0822
rwrist 4.92716
rhand -39.5719 16.2301
rfingers 7.12502
rthumb -12.5551 -13.3727
lclavicle -1.27222e-014 6.36111e-015
lhumerus -15.3704 -23.8671 68.6203
lradius 76.9005
lwrist 14.7934
lhand -32.5386 13.868
lfingers 7.12502
lthumb -5.76877 43.7695
rfemur -29.2896 -2.93944 14.5231
rtibia 70.2104
rfoot -22.6721 -9.04159
rtoes 3.04552
lfemur -14.2684 14.0529 -27.5262
ltibia 36.9651
lfoot -16.3668 -1.03954
ltoes 0.0557749
1665
root 7.6307 16.4167 -7.30242 480.384 86.0349 -959.563
lowerback 9.79812 -1.77582 -4.95093
upperback 2.82305 -2.73397 0.378374
thorax -2.29233 -1.31863 3.48596
lowerneck -12.0019 0.649033 -0.231498
upperneck 15.1522 0.411605 3.59803
head 6.58366 0.527442 1.2337
rclavicle -4.53229e-014 1.35174e-014
rhumerus -26.8144 15.6382 -70.7816
rradius 69.1407
rwrist 4.87285
rhand -39.5829 16.2539
rfingers 7.12502
rthumb -12.5656 -13.3482
lclavicle -4.53229e-014 1.35174e-014
lhumerus -14.8087 -24.2113 68.3671
lradius 77.2809
lwrist 14.9929
lhand -32.6916 13.8638
lfingers 7.12502
lthumb -5.91644 43.7612
rfemur -30.0924 -3.04324 14.4612
rtibia 69.6578
rfoot -22.5179 -8.77688
rtoes 2.84285
lfemur -13.5287 14.1139 -27.6135
ltibia 36.6094
lfoot -16.5734 -0.972496
ltoes -0.0789373
1666
root 7.73328 16.4159 -7.32126 478.747 85.9483 -961.114
lowerback 9.80405 -1.79782 -5.01261
upperback 2.79825 -2.77216 0.333802
thorax -2.31694 -1.33652 3.47918
lowerneck -11.9516 1.21973 0.279557
upperneck 15.1431 1.16963 3.13886
head 6.56286 0.881987 1.07025
rclavicle 4.81059e-014 9.54166e-015
rhumerus -26.8796 15.4678 -70.6702
rradius 69.2315
rwrist 4.81253
rhand -39.595 16.2819
rfingers 7.12502
rthumb -12.5774 -13.3195
lclavicle 4.81059e-014 9.54166e-015
lhumerus -14.2582 -24.576 68.1372
lradius 77.6283
lwrist 15.1401
lhand -32.7887 13.8499
lfingers 7.12502
lthumb -6.01025 43.7447
rfemur -30.856 -3.16606 14.4091
rtibia 69.0509
rfoot -22.3763 -8.5644
rtoes 2.66359
lfemur -12.7842 14.1451 -27.7019
ltibia 36.2176
lfoot -16.7521 -0.883584
ltoes -0.241943
1667
root 7.836 16.4164 -7.33898 477.425 85.8568 -962.364
lowerback 9.79499 -1.81049 -5.05244
upperback 2.77526 -2.79509 0.287272
thorax -2.3341 -1.34708 3.45579
lowerneck -11.8301 1.87242 0.853757
upperneck 15.0376 2.03926 2.62203
head 6.50686 1.28754 0.886156
rclavicle -3.57812e-014 -1.07344e-014
rhumerus -26.9808 15.2615 -70.5708
rradius 69.3539
rwrist 4.74121
rhand -39.6076 16.2988
rfingers 7.12502
rthumb -12.5895 -13.3019
lclavicle -3.57812e-014 -1.07344e-014
lhumerus -13.705 -24.9547 67.9312
lradius 77.9236
lwrist 15.2095
lhand -32.7923 13.8003
lfingers 7.12502
lthumb -6.01364 43.695
rfemur -31.582 -3.29802 14.3717
rtibia 68.3962
rfoot -22.2481 -8.40111
rtoes 2.50712
lfemur -12.041 14.1446 -27.7868
ltibia 35.792
lfoot -16.9025 -0.772027
ltoes -0.421269
1668
root 7.9387 16.4181 -7.35567 476.437 85.7685 -963.293
lowerback 9.77072 -1.81134 -5.06201
upperback 2.75597 -2.79845 0.240761
thorax -2.34246 -1.34828 3.4126
lowerneck -11.6539 2.59387 1.46571
upperneck 14.8552 3.00342 2.06644
head 6.42768 1.73701 0.690064
rclavicle 1.49089e-016 2.54444e-014
rhumerus -27.1232 15.0119 -70.4814
rradius 69.508
rwrist 4.65678
rhand -39.6143 16.3033
rfingers 7.12502
rthumb -12.596 -13.297
lclavicle 1.49089e-016 2.54444e-014
lhumerus -13.1299 -25.3467 67.754
lradius 78.1496
lwrist 15.2
lhand -32.7072 13.7094
lfingers 7.12502
lthumb -5.93153 43.6064
rfemur -32.2709 -3.43119 14.3553
rtibia 67.7024
rfoot -22.116 -8.29862
rtoes 2.28108
lfemur -11.3012 14.1113 -27.8615
ltibia 35.3349
lfoot -17.0374 -0.640688
ltoes -0.581131
1669
root 8.04173 16.4209 -7.37116 475.714 85.6949 -963.964
lowerback 9.73501 -1.79391 -5.03596
upperback 2.74071 -2.7733 0.195594
thorax -2.34476 -1.33559 3.34722
lowerneck -11.4216 3.37011 2.09918
upperneck 14.6133 4.04363 1.48823
head 6.33298 2.22284 0.48803
rclavicle -3.79182e-014 8.54774e-015
rhumerus -27.3215 14.7107 -70.4001
rradius 69.6923
rwrist 4.55514
rhand -39.6167 16.2984
rfingers 7.12502
rthumb -12.5982 -13.3018
lclavicle -3.79182e-014 8.54774e-015
lhumerus -12.5265 -25.7694 67.6098
lradius 78.3041
lwrist 15.1433
lhand -32.5463 13.6084
lfingers 7.12502
lthumb -5.77616 43.5097
rfemur -32.9146 -3.54886 14.3685
rtibia 66.9787
rfoot -21.9807 -8.24916
rtoes 2.01505
lfemur -10.556 14.0506 -27.9145
ltibia 34.8481
lfoot -17.1674 -0.490511
ltoes -0.697141
1670
root 8.14486 16.4244 -7.38585 475.192 85.6329 -964.447
lowerback 9.68347 -1.75616 -4.97719
upperback 2.72742 -2.71717 0.151558
thorax -2.34063 -1.30781 3.26068
lowerneck -11.1449 4.18552 2.7303
upperneck 14.3354 5.13944 0.909352
head 6.23295 2.73643 0.289432
rclavicle 2.23136e-014 -2.18663e-015
rhumerus -27.5732 14.3636 -70.3194
rradius 69.8932
rwrist 4.4346
rhand -39.6215 16.2838
rfingers 7.12502
rthumb -12.6029 -13.316
lclavicle 2.23136e-014 -2.18663e-015
lhumerus -11.8811 -26.2283 67.5037
lradius 78.3752
lwrist 15.0701
lhand -32.336 13.4974
lfingers 7.12502
lthumb -5.57318 43.4042
rfemur -33.5231 -3.65502 14.4013
rtibia 66.2371
rfoot -21.8259 -8.23848
rtoes 1.72974
lfemur -9.81096 13.9674 -27.9547
ltibia 34.3321
lfoot -17.2991 -0.320797
ltoes -0.785649
1671
root 8.24831 16.4282 -7.3996 474.783 85.5836 -964.823
lowerback 9.62188 -1.69487 -4.89171
upperback 2.71452 -2.62682 0.108328
thorax -2.33468 -1.26316 3.15606
lowerneck -10.8192 5.0217 3.34357
upperneck 14.0336 6.26683 0.346124
head 6.13032 3.26723 0.0997519
rclavicle 2.1419e-014 -1.98785e-015
rhumerus -27.8846 13.974 -70.2373
rradius 70.0994
rwrist 4.30958
rhand -39.6287 16.2604
rfingers 7.12502
rthumb -12.6099 -13.339
lclavicle 2.1419e-014 -1.98785e-015
lhumerus -11.1865 -26.7308 67.4368
lradius 78.3554
lwrist 15.0082
lhand -32.1148 13.4056
lfingers 7.12502
lthumb -5.3596 43.3178
rfemur -34.0916 -3.74463 14.4501
rtibia 65.4873
rfoot -21.6403 -8.24461
rtoes 1.46083
lfemur -9.05566 13.8721 -27.9811
ltibia 33.7849
lfoot -17.4473 -0.139073
ltoes -0.807332
1672
root 8.35216 16.432 -7.41245 474.412 85.5424 -965.17
lowerback 9.5503 -1.61094 -4.79112
upperback 2.69747 -2.50488 0.0660594
thorax -2.33051 -1.20281 3.04044
lowerneck -10.4453 5.86431 3.9361
upperneck 13.7225 7.40713 -0.197787
head 6.02923 3.80676 -0.0809389
rclavicle 2.93207e-015 4.77083e-015
rhumerus -28.2504 13.5621 -70.1526
rradius 70.2914
rwrist 4.18302
rhand -39.6455 16.2358
rfingers 7.12502
rthumb -12.626 -13.3626
lclavicle 2.93207e-015 4.77083e-015
lhumerus -10.4471 -27.272 67.4141
lradius 78.243
lwrist 14.9729
lhand -31.9102 13.3583
lfingers 7.12502
lthumb -5.162 43.2754
rfemur -34.6257 -3.82172 14.5076
rtibia 64.7383
rfoot -21.4138 -8.25966
rtoes 1.18866
lfemur -8.28922 13.7762 -28.0006
ltibia 33.2029
lfoot -17.6074 0.0506919
ltoes -0.783614
